<svg id="Component_89_1" data-name="Component 89 – 1" xmlns="http://www.w3.org/2000/svg" width="37.87" height="37.933" viewBox="0 0 37.87 37.933">
  <path id="Exclusion_1" data-name="Exclusion 1" d="M18.6,36.375a18.85,18.85,0,0,1-7.241-1.429,18.568,18.568,0,0,1-5.913-3.9,18.11,18.11,0,0,1-3.986-5.781,17.875,17.875,0,0,1,0-14.159A18.109,18.109,0,0,1,5.448,5.327a18.568,18.568,0,0,1,5.913-3.9,19.055,19.055,0,0,1,14.481,0,18.568,18.568,0,0,1,5.913,3.9,18.11,18.11,0,0,1,3.986,5.781,17.875,17.875,0,0,1,0,14.159,18.11,18.11,0,0,1-3.986,5.781,18.568,18.568,0,0,1-5.913,3.9A18.848,18.848,0,0,1,18.6,36.375Zm0-31.66A13.349,13.349,0,0,0,5.411,18.188,13.349,13.349,0,0,0,18.6,31.66a13.348,13.348,0,0,0,13.19-13.472A13.348,13.348,0,0,0,18.6,4.715Z" fill="#42d921"/>
  <path id="Path_2" data-name="Path 2" d="M0,0,5.4.011l.021,10.125-5.4-.011Z" transform="translate(26.869 30.765) rotate(-45)" fill="#42d921"/>
</svg>
